P2
5 5
94
24 87 16 72 51 
73 24 31 25 21 
59 89 15 89 75 
87 74 69 62 55 
45 54 94 13 53